<?xml version="1.0" encoding="UTF-8"?>
<svg xmlns="http://www.w3.org/2000/svg" xmlns:xlink="http://www.w3.org/1999/xlink" width="44px" height="44px" viewBox="0 0 44 43" version="1.1">
<g id="surface1">
<path style=" stroke:none;fill-rule:nonzero;fill:rgb(0%,0%,0%);fill-opacity:1;" d="M 11.894531 0.0664062 C 11.222656 0.117188 10.957031 0.15625 10.3125 0.285156 C 9.886719 0.371094 9.382812 0.492188 9.195312 0.558594 C 8.082031 0.933594 7.832031 1.035156 7.148438 1.367188 C 4.140625 2.851562 1.859375 5.40625 0.738281 8.550781 C 0.492188 9.25 0.433594 9.457031 0.28125 10.210938 C 0.128906 10.964844 0.101562 11.175781 0.0507812 11.894531 C 0 12.648438 0 12.78125 0.0507812 13.53125 C 0.101562 14.242188 0.128906 14.464844 0.277344 15.210938 C 0.433594 15.972656 0.488281 16.171875 0.746094 16.902344 C 1.132812 18 1.539062 18.800781 2.207031 19.777344 C 2.710938 20.519531 3.542969 21.5 4.019531 21.914062 C 4.152344 22.03125 4.34375 22.21875 4.449219 22.335938 C 4.550781 22.453125 4.914062 22.789062 5.25 23.078125 C 6.945312 24.554688 8.953125 25.542969 11.183594 25.992188 C 11.933594 26.144531 12.117188 26.167969 12.90625 26.222656 C 13.734375 26.277344 13.832031 26.277344 14.65625 26.222656 C 15.429688 26.171875 15.628906 26.144531 16.371094 25.996094 C 16.828125 25.90625 17.253906 25.816406 17.308594 25.796875 C 18.738281 25.351562 19.925781 24.804688 20.953125 24.125 C 21.292969 23.898438 21.585938 23.699219 21.613281 23.6875 C 21.636719 23.671875 21.691406 23.71875 21.757812 23.808594 C 21.84375 23.933594 21.894531 23.972656 22.058594 24.023438 C 22.25 24.082031 22.289062 24.117188 23.273438 25.132812 C 27.492188 29.5 33.988281 36.296875 38.753906 41.339844 L 40.335938 43.007812 L 40.609375 42.984375 C 40.878906 42.960938 40.902344 42.953125 41.285156 42.71875 C 42.054688 42.25 43.144531 41.230469 43.675781 40.476562 C 43.914062 40.144531 43.941406 40.089844 43.96875 39.890625 C 43.984375 39.769531 43.996094 39.644531 44 39.613281 C 44 39.527344 42.179688 37.664062 40.371094 35.902344 C 38.613281 34.1875 37.519531 33.152344 34.046875 29.917969 C 30 26.140625 27.640625 23.882812 25.96875 22.179688 C 25.21875 21.410156 24.917969 21.128906 24.863281 21.128906 C 24.808594 21.128906 24.785156 21.109375 24.785156 21.058594 C 24.785156 20.976562 24.636719 20.738281 24.554688 20.695312 C 24.503906 20.664062 24.519531 20.625 24.726562 20.324219 C 25.128906 19.726562 25.675781 18.597656 25.988281 17.714844 C 26.226562 17.050781 26.289062 16.816406 26.433594 16.105469 C 26.582031 15.378906 26.613281 15.171875 26.664062 14.421875 C 26.71875 13.617188 26.71875 13.519531 26.664062 12.699219 C 26.609375 11.929688 26.585938 11.742188 26.433594 11.015625 C 25.988281 8.847656 24.992188 6.875 23.496094 5.1875 C 23.195312 4.855469 22.847656 4.492188 22.726562 4.386719 C 22.601562 4.28125 22.40625 4.085938 22.292969 3.960938 C 22.179688 3.832031 21.808594 3.484375 21.464844 3.1875 C 19.789062 1.734375 17.789062 0.746094 15.605469 0.296875 C 14.902344 0.152344 14.6875 0.121094 13.921875 0.0664062 C 12.898438 -0.0117188 12.9375 -0.0117188 11.894531 0.0664062 Z M 15.398438 0.910156 C 16.457031 1.046875 17.417969 1.289062 18.382812 1.648438 C 18.945312 1.859375 18.699219 1.796875 17.941406 1.542969 C 17.335938 1.335938 17.050781 1.261719 16.34375 1.121094 C 15.589844 0.96875 15.386719 0.941406 14.644531 0.894531 C 13.867188 0.84375 13.738281 0.84375 12.960938 0.894531 C 12.25 0.941406 11.988281 0.976562 11.328125 1.101562 C 10.894531 1.1875 10.5 1.261719 10.449219 1.269531 L 10.363281 1.285156 L 10.449219 1.25 C 10.671875 1.15625 11.855469 0.9375 12.445312 0.882812 C 12.660156 0.863281 12.894531 0.839844 12.960938 0.832031 C 13.289062 0.792969 14.925781 0.84375 15.398438 0.910156 Z M 14.832031 1.269531 C 16.878906 1.402344 18.996094 2.132812 20.796875 3.324219 C 21.957031 4.089844 22.554688 4.671875 23.347656 5.832031 C 24.28125 7.191406 24.878906 8.589844 25.222656 10.242188 C 25.375 10.972656 25.402344 11.167969 25.453125 11.894531 C 25.507812 12.648438 25.507812 12.773438 25.453125 13.515625 C 25.40625 14.203125 25.375 14.433594 25.226562 15.167969 C 25.078125 15.898438 25.019531 16.125 24.789062 16.773438 C 23.886719 19.296875 22.21875 21.433594 19.972656 22.9375 C 19.109375 23.511719 18.082031 24.027344 17.1875 24.332031 C 16.859375 24.445312 16.523438 24.558594 16.449219 24.585938 C 16.371094 24.613281 15.925781 24.710938 15.453125 24.804688 C 14.703125 24.953125 14.488281 24.984375 13.777344 25.03125 C 13.03125 25.082031 12.898438 25.082031 12.128906 25.03125 C 9.855469 24.886719 7.773438 24.191406 5.929688 22.960938 C 4.753906 22.171875 4.160156 21.589844 3.390625 20.472656 C 2.46875 19.132812 1.820312 17.621094 1.496094 16.046875 C 1.359375 15.382812 1.328125 15.160156 1.273438 14.425781 C 1.21875 13.613281 1.21875 13.53125 1.273438 12.726562 C 1.324219 12 1.355469 11.769531 1.496094 11.089844 C 2.480469 6.265625 6.359375 2.445312 11.273438 1.46875 C 11.941406 1.335938 12.214844 1.296875 12.886719 1.25 C 13.335938 1.21875 13.796875 1.199219 13.921875 1.207031 C 14.046875 1.214844 14.453125 1.242188 14.832031 1.269531 Z M 10.3125 1.308594 C 10.128906 1.378906 8.976562 1.769531 8.921875 1.78125 C 8.882812 1.789062 8.945312 1.753906 9.058594 1.707031 C 9.328125 1.59375 10.246094 1.285156 10.3125 1.289062 C 10.355469 1.289062 10.355469 1.292969 10.3125 1.308594 Z M 8.625 1.90625 C 8.589844 1.9375 7.546875 2.4375 7.578125 2.40625 C 7.621094 2.367188 8.5625 1.894531 8.609375 1.894531 C 8.625 1.894531 8.632812 1.898438 8.625 1.90625 Z M 19.339844 2.089844 C 19.320312 2.101562 19.042969 1.96875 19.042969 1.945312 C 19.042969 1.933594 19.113281 1.960938 19.199219 2 C 19.28125 2.042969 19.347656 2.078125 19.339844 2.089844 Z M 25.265625 8.875 C 25.265625 8.890625 25.25 8.882812 25.230469 8.855469 C 25.214844 8.828125 25.195312 8.789062 25.195312 8.773438 C 25.195312 8.753906 25.214844 8.761719 25.230469 8.789062 C 25.25 8.816406 25.265625 8.855469 25.265625 8.875 Z M 25.53125 9.878906 C 25.519531 9.90625 25.507812 9.894531 25.507812 9.859375 C 25.507812 9.820312 25.515625 9.800781 25.527344 9.8125 C 25.539062 9.824219 25.539062 9.855469 25.53125 9.878906 Z M 25.636719 10.359375 C 25.632812 10.453125 25.546875 10.113281 25.546875 10.007812 C 25.546875 9.957031 25.566406 10.007812 25.59375 10.109375 C 25.621094 10.210938 25.640625 10.324219 25.636719 10.359375 Z M 25.667969 10.554688 C 25.65625 10.578125 25.652344 10.5625 25.652344 10.511719 C 25.652344 10.464844 25.65625 10.449219 25.667969 10.46875 C 25.675781 10.492188 25.675781 10.535156 25.667969 10.554688 Z M 25.847656 12.046875 C 25.851562 12.484375 25.824219 12.324219 25.804688 11.816406 C 25.796875 11.511719 25.796875 11.417969 25.816406 11.5625 C 25.828125 11.683594 25.84375 11.902344 25.847656 12.046875 Z M 25.875 12.53125 C 25.863281 12.566406 25.855469 12.539062 25.855469 12.472656 C 25.855469 12.410156 25.863281 12.382812 25.875 12.414062 C 25.882812 12.445312 25.882812 12.5 25.875 12.53125 Z M 25.875 13.054688 C 25.867188 13.097656 25.859375 13.074219 25.859375 12.996094 C 25.855469 12.921875 25.863281 12.890625 25.875 12.921875 C 25.882812 12.953125 25.882812 13.015625 25.875 13.054688 Z M 25.835938 13.613281 C 25.824219 13.871094 25.796875 14.132812 25.78125 14.199219 L 25.746094 14.316406 L 25.765625 14.179688 C 25.769531 14.105469 25.789062 13.84375 25.800781 13.597656 C 25.816406 13.351562 25.832031 13.148438 25.84375 13.148438 C 25.851562 13.148438 25.851562 13.359375 25.835938 13.613281 Z M 25.609375 15.285156 C 25.546875 15.570312 25.492188 15.8125 25.480469 15.820312 C 25.460938 15.839844 25.460938 15.835938 25.597656 15.148438 C 25.652344 14.878906 25.699219 14.683594 25.707031 14.710938 C 25.710938 14.742188 25.667969 15 25.609375 15.285156 Z M 25.460938 15.929688 C 25.453125 15.957031 25.441406 15.945312 25.441406 15.910156 C 25.4375 15.871094 25.449219 15.851562 25.457031 15.863281 C 25.46875 15.875 25.472656 15.90625 25.460938 15.929688 Z M 25.175781 16.839844 C 25.089844 17.085938 25.003906 17.3125 24.988281 17.34375 C 24.957031 17.386719 24.953125 17.386719 24.964844 17.34375 C 25.019531 17.164062 25.3125 16.363281 25.324219 16.371094 C 25.332031 16.378906 25.265625 16.589844 25.175781 16.839844 Z M 24.527344 18.363281 C 24.398438 18.609375 24.28125 18.824219 24.261719 18.847656 C 24.246094 18.863281 24.339844 18.65625 24.476562 18.382812 C 24.617188 18.109375 24.734375 17.894531 24.742188 17.898438 C 24.75 17.90625 24.652344 18.117188 24.527344 18.363281 Z M 23.761719 19.675781 C 23.734375 19.730469 23.667969 19.820312 23.621094 19.871094 C 23.578125 19.921875 23.601562 19.875 23.671875 19.765625 C 23.800781 19.566406 23.871094 19.5 23.761719 19.675781 Z M 23.761719 19.675781 "/>
</g>
</svg>
